# xmcd
#
# Track frame offsets:
#	150
#	16982
#	34985
#	43937
#	52325
#	65185
#	74970
#	87070
#	104690
#	118110
#	126877
#	141910
#	159227
#	171242
#	178935
#	191082
#	201170
#	218787
#	231995
#	244985
#	254075
#
# Disc length: 3613 seconds
#
# Revision: 0
# Processed by: cddbd v1.5.2PL0 Copyright (c) Steve Scherf et al.
# Submitted via: audiograbber 1.83.01
#
DISCID=5c0e1b15
DTITLE=The Cliff Adams Singers - For Lovers
DYEAR=1993
DGENRE=Easy Listening
TTITLE0=I Don't Know Why/ The Glory of Love/ Love in Bloom
TTITLE1=Melody of Love/ My Wonderful One/ Longing for You
TTITLE2=Everywhere You Go/ Red Roses for a Blue Lady
TTITLE3=A Lover And His Lass
TTITLE4=May You Always
TTITLE5=Matrimony
TTITLE6=Forgotten Dreams (Piano Solo)
TTITLE7=Lover's Concerto/ I Just Called To Say I Love You
TTITLE8=Let Us Be Sweethearts/ I'll Always Be In Love With You
TTITLE9=I Love My Baby
TTITLE10=Honeysuckle and the Bee/If I Should Plant/ Be My Little
TTITLE11=Love's Last Word/ Parlez Moi D'Amour/That's Amore
TTITLE12=You Are My Sunshine
TTITLE13=Viva L'Amour
TTITLE14=These Foolish Things
TTITLE15=Peggy Sue/ Every Day
TTITLE16=Moonlight Sonata (Piano Solo)
TTITLE17=Softly As I Leave You/ Stone In Love With You
TTITLE18=All Alone/ Because I Love You
TTITLE19=Speak To Me Pretty
TTITLE20=The Very Thought Of You/ The Touch Of Your Lips
EXTD=
EXTT0=
EXTT1=
EXTT2=
EXTT3=
EXTT4=
EXTT5=
EXTT6=
EXTT7=
EXTT8=
EXTT9=
EXTT10=
EXTT11=
EXTT12=
EXTT13=
EXTT14=
EXTT15=
EXTT16=
EXTT17=
EXTT18=
EXTT19=
EXTT20=
PLAYORDER=
